<?xml version="1.0" encoding="UTF-8"?><svg id="Layer_1" xmlns="http://www.w3.org/2000/svg" viewBox="0 0 700 335.08"><defs><style>.cls-1{stroke:#d0382e;}.cls-1,.cls-2{stroke-miterlimit:10;}.cls-1,.cls-3{fill:none;stroke-linecap:round;stroke-width:3px;}.cls-2{stroke-width:.7px;}.cls-2,.cls-3{stroke:#000;}.cls-4{fill:#d0382e;}.cls-3{stroke-linejoin:round;}</style></defs><path class="cls-3" d="m80.1,219.19v-50.26"/><path class="cls-1" d="m226.26,219.19v-50.26"/><path class="cls-3" d="m320.52,219.19v-50.26"/><path class="cls-1" d="m419.87,219.19v-50.26"/><path class="cls-3" d="m525.39,219.19v-50.26"/><path class="cls-1" d="m622.28,219.19v-50.26"/><g><path d="m44.93,230.04v-2.21c1.41-.32,2.76-1.09,3.81-2.23h1.92v12.56h3.54v2.17h-10.06v-2.17h4.21v-9.72c-.99.86-2.08,1.33-3.41,1.6Z"/><path d="m56.1,232.97c0-4.52,2.04-7.53,5.6-7.53s5.58,3.01,5.58,7.53-2.06,7.53-5.58,7.53-5.6-3.01-5.6-7.53Zm8.71,0c0-3.28-1.09-5.39-3.11-5.39s-3.14,2.1-3.14,5.39,1.07,5.37,3.14,5.37,3.11-2.08,3.11-5.37Z"/><path d="m69.84,237.79h2.86l-2.63,5.01h-1.54l1.3-5.01Z"/><path d="m74.65,232.97c0-4.52,2.04-7.53,5.6-7.53s5.58,3.01,5.58,7.53-2.06,7.53-5.58,7.53-5.6-3.01-5.6-7.53Zm8.71,0c0-3.28-1.09-5.39-3.11-5.39s-3.14,2.1-3.14,5.39,1.07,5.37,3.14,5.37,3.11-2.08,3.11-5.37Z"/><path d="m87.27,232.97c0-4.52,2.04-7.53,5.6-7.53s5.58,3.01,5.58,7.53-2.06,7.53-5.58,7.53-5.6-3.01-5.6-7.53Zm8.71,0c0-3.28-1.09-5.39-3.11-5.39s-3.14,2.1-3.14,5.39,1.07,5.37,3.14,5.37,3.11-2.08,3.11-5.37Z"/><path d="m99.89,232.97c0-4.52,2.04-7.53,5.6-7.53s5.58,3.01,5.58,7.53-2.06,7.53-5.58,7.53-5.6-3.01-5.6-7.53Zm8.71,0c0-3.28-1.09-5.39-3.11-5.39s-3.14,2.1-3.14,5.39,1.07,5.37,3.14,5.37,3.11-2.08,3.11-5.37Z"/><path d="m59.43,249.73h2.29v1.35c.59-.86,1.83-1.51,3.3-1.51,3.14,0,4.99,2.27,4.99,5.47s-1.94,5.47-5.11,5.47c-1.28,0-2.52-.55-3.18-1.39v5.05h-2.29v-14.44Zm8.29,5.3c0-2.1-1.22-3.47-3.07-3.47s-3.07,1.37-3.07,3.47,1.22,3.47,3.07,3.47,3.07-1.39,3.07-3.47Z"/><path d="m74.56,245.44v2.55h-2.53v-2.55h2.53Zm-2.42,4.29h2.29v10.61h-2.29v-10.61Z"/><path d="m77.14,249.73h2.29v1.35c.59-.86,1.83-1.51,3.3-1.51,3.14,0,4.99,2.27,4.99,5.47s-1.94,5.47-5.11,5.47c-1.28,0-2.52-.55-3.18-1.39v5.05h-2.29v-14.44Zm8.29,5.3c0-2.1-1.22-3.47-3.07-3.47s-3.07,1.37-3.07,3.47,1.22,3.47,3.07,3.47,3.07-1.39,3.07-3.47Z"/><path d="m88.86,257.39l1.89-.8c.36,1.14,1.18,2.08,2.65,2.08,1.09,0,1.83-.63,1.83-1.39,0-2.29-5.91-.8-5.91-4.82,0-1.66,1.45-2.9,3.75-2.9,2,0,3.68,1.05,4.15,2.61l-1.89.8c-.27-1.05-1.26-1.64-2.23-1.64s-1.64.4-1.64,1.09c0,2.04,5.96.48,5.96,4.84,0,1.83-1.6,3.24-4,3.24-2.59,0-4.06-1.6-4.54-3.11Z"/></g><g><path d="m301,238.12l5.51-4.57c1.66-1.39,2.4-2.5,2.4-3.72,0-1.47-1.01-2.42-2.57-2.42-1.85,0-2.93,1.35-2.74,3.41l-2.42-.17c-.27-3.11,2-5.39,5.16-5.39s5.15,1.83,5.15,4.57c0,1.77-1.05,3.43-3.49,5.37l-3.45,2.8h6.92v2.17h-10.46l-.02-2.04Z"/><path d="m313.56,232.8c0-4.52,2.04-7.53,5.6-7.53s5.58,3.01,5.58,7.53-2.06,7.53-5.58,7.53-5.6-3.01-5.6-7.53Zm8.71,0c0-3.28-1.09-5.39-3.11-5.39s-3.14,2.1-3.14,5.39,1.07,5.37,3.14,5.37,3.11-2.08,3.11-5.37Z"/><path d="m326.18,232.8c0-4.52,2.04-7.53,5.6-7.53s5.58,3.01,5.58,7.53-2.06,7.53-5.58,7.53-5.6-3.01-5.6-7.53Zm8.71,0c0-3.28-1.09-5.39-3.11-5.39s-3.14,2.1-3.14,5.39,1.07,5.37,3.14,5.37,3.11-2.08,3.11-5.37Z"/><path d="m300.47,249.56h2.29v1.35c.59-.86,1.83-1.51,3.3-1.51,3.14,0,4.99,2.27,4.99,5.47s-1.94,5.47-5.11,5.47c-1.28,0-2.53-.55-3.18-1.39v5.05h-2.29v-14.44Zm8.29,5.3c0-2.1-1.22-3.47-3.07-3.47s-3.07,1.37-3.07,3.47,1.22,3.47,3.07,3.47,3.07-1.39,3.07-3.47Z"/><path d="m315.59,245.27v2.55h-2.53v-2.55h2.53Zm-2.42,4.29h2.29v10.61h-2.29v-10.61Z"/><path d="m318.18,249.56h2.29v1.35c.59-.86,1.83-1.51,3.3-1.51,3.14,0,4.99,2.27,4.99,5.47s-1.94,5.47-5.11,5.47c-1.28,0-2.53-.55-3.18-1.39v5.05h-2.29v-14.44Zm8.29,5.3c0-2.1-1.22-3.47-3.07-3.47s-3.07,1.37-3.07,3.47,1.22,3.47,3.07,3.47,3.07-1.39,3.07-3.47Z"/><path d="m329.89,257.22l1.89-.8c.36,1.14,1.18,2.08,2.65,2.08,1.09,0,1.83-.63,1.83-1.39,0-2.29-5.91-.8-5.91-4.82,0-1.66,1.45-2.9,3.74-2.9,2,0,3.68,1.05,4.15,2.61l-1.89.8c-.27-1.05-1.26-1.64-2.23-1.64s-1.64.4-1.64,1.09c0,2.04,5.96.48,5.96,4.84,0,1.83-1.6,3.24-4,3.24-2.59,0-4.06-1.6-4.54-3.11Z"/></g><g><path class="cls-4" d="m200.76,229.88v-2.21c1.41-.32,2.76-1.09,3.81-2.23h1.92v12.56h3.54v2.17h-10.06v-2.17h4.21v-9.72c-.99.86-2.08,1.33-3.41,1.6Z"/><path class="cls-4" d="m211.93,232.8c0-4.52,2.04-7.53,5.6-7.53s5.58,3.01,5.58,7.53-2.06,7.53-5.58,7.53-5.6-3.01-5.6-7.53Zm8.71,0c0-3.28-1.09-5.39-3.11-5.39s-3.14,2.1-3.14,5.39,1.07,5.37,3.14,5.37,3.11-2.08,3.11-5.37Z"/><path class="cls-4" d="m224.55,232.8c0-4.52,2.04-7.53,5.6-7.53s5.58,3.01,5.58,7.53-2.06,7.53-5.58,7.53-5.6-3.01-5.6-7.53Zm8.71,0c0-3.28-1.09-5.39-3.11-5.39s-3.14,2.1-3.14,5.39,1.07,5.37,3.14,5.37,3.11-2.08,3.11-5.37Z"/><path class="cls-4" d="m237.17,232.8c0-4.52,2.04-7.53,5.6-7.53s5.58,3.01,5.58,7.53-2.06,7.53-5.58,7.53-5.6-3.01-5.6-7.53Zm8.71,0c0-3.28-1.09-5.39-3.11-5.39s-3.14,2.1-3.14,5.39,1.07,5.37,3.14,5.37,3.11-2.08,3.11-5.37Z"/><path class="cls-4" d="m206.41,249.56h2.29v1.35c.59-.86,1.83-1.51,3.3-1.51,3.14,0,4.99,2.27,4.99,5.47s-1.94,5.47-5.11,5.47c-1.28,0-2.52-.55-3.18-1.39v5.05h-2.29v-14.44Zm8.29,5.3c0-2.1-1.22-3.47-3.07-3.47s-3.07,1.37-3.07,3.47,1.22,3.47,3.07,3.47,3.07-1.39,3.07-3.47Z"/><path class="cls-4" d="m221.53,245.27v2.55h-2.53v-2.55h2.53Zm-2.42,4.29h2.29v10.61h-2.29v-10.61Z"/><path class="cls-4" d="m224.12,249.56h2.29v1.35c.59-.86,1.83-1.51,3.3-1.51,3.14,0,4.99,2.27,4.99,5.47s-1.94,5.47-5.11,5.47c-1.28,0-2.52-.55-3.18-1.39v5.05h-2.29v-14.44Zm8.29,5.3c0-2.1-1.22-3.47-3.07-3.47s-3.07,1.37-3.07,3.47,1.22,3.47,3.07,3.47,3.07-1.39,3.07-3.47Z"/><path class="cls-4" d="m235.84,257.22l1.89-.8c.36,1.14,1.18,2.08,2.65,2.08,1.09,0,1.83-.63,1.83-1.39,0-2.29-5.91-.8-5.91-4.82,0-1.66,1.45-2.9,3.75-2.9,2,0,3.68,1.05,4.15,2.61l-1.89.8c-.27-1.05-1.26-1.64-2.23-1.64s-1.64.4-1.64,1.09c0,2.04,5.96.48,5.96,4.84,0,1.83-1.6,3.24-4,3.24-2.59,0-4.06-1.6-4.54-3.11Z"/></g><g><path class="cls-4" d="m407.85,236.02l2.32-.36c.23,1.54,1.49,2.5,3.18,2.5,1.81,0,3.05-1.07,3.05-2.71s-1.16-2.67-2.95-2.67c-.53,0-1.2.15-1.68.46l-1.01-1.6,4.36-4.06h-6.82v-2.15h9.76v2.04l-3.98,3.66c2.84-.15,4.84,1.56,4.84,4.38s-2.23,4.82-5.58,4.82c-3.03,0-5.2-1.7-5.49-4.31Z"/><path class="cls-4" d="m420.58,232.8c0-4.52,2.04-7.53,5.6-7.53s5.58,3.01,5.58,7.53-2.06,7.53-5.58,7.53-5.6-3.01-5.6-7.53Zm8.71,0c0-3.28-1.09-5.39-3.11-5.39s-3.14,2.1-3.14,5.39,1.07,5.37,3.14,5.37,3.11-2.08,3.11-5.37Z"/><path class="cls-4" d="m402.43,249.56h2.29v1.35c.59-.86,1.83-1.51,3.3-1.51,3.14,0,4.99,2.27,4.99,5.47s-1.94,5.47-5.11,5.47c-1.28,0-2.52-.55-3.18-1.39v5.05h-2.29v-14.44Zm8.29,5.3c0-2.1-1.22-3.47-3.07-3.47s-3.07,1.37-3.07,3.47,1.22,3.47,3.07,3.47,3.07-1.39,3.07-3.47Z"/><path class="cls-4" d="m417.56,245.27v2.55h-2.53v-2.55h2.53Zm-2.42,4.29h2.29v10.61h-2.29v-10.61Z"/><path class="cls-4" d="m420.14,249.56h2.29v1.35c.59-.86,1.83-1.51,3.3-1.51,3.14,0,4.99,2.27,4.99,5.47s-1.94,5.47-5.11,5.47c-1.28,0-2.52-.55-3.18-1.39v5.05h-2.29v-14.44Zm8.29,5.3c0-2.1-1.22-3.47-3.07-3.47s-3.07,1.37-3.07,3.47,1.22,3.47,3.07,3.47,3.07-1.39,3.07-3.47Z"/><path class="cls-4" d="m431.86,257.22l1.89-.8c.36,1.14,1.18,2.08,2.65,2.08,1.09,0,1.83-.63,1.83-1.39,0-2.29-5.91-.8-5.91-4.82,0-1.66,1.45-2.9,3.75-2.9,2,0,3.68,1.05,4.15,2.61l-1.89.8c-.27-1.05-1.26-1.64-2.23-1.64s-1.64.4-1.64,1.09c0,2.04,5.96.48,5.96,4.84,0,1.83-1.6,3.24-4,3.24-2.59,0-4.06-1.6-4.54-3.11Z"/></g><g><path class="cls-4" d="m607.58,232.8c0-4.52,2.04-7.53,5.6-7.53s5.58,3.01,5.58,7.53-2.06,7.53-5.58,7.53-5.6-3.01-5.6-7.53Zm8.71,0c0-3.28-1.09-5.39-3.11-5.39s-3.14,2.1-3.14,5.39,1.07,5.37,3.14,5.37,3.11-2.08,3.11-5.37Z"/><path class="cls-4" d="m620.81,238.86c0-.84.63-1.47,1.49-1.47s1.49.63,1.49,1.47-.63,1.47-1.49,1.47-1.49-.63-1.49-1.47Z"/><path class="cls-4" d="m626.16,236.25l2.27-.4c.27,1.41,1.43,2.31,3.05,2.31,1.73,0,2.84-1.16,2.84-2.9s-1.16-2.9-3.03-2.9c-1.26,0-2.27.57-2.97,1.6l-1.79-.38,1.2-8.14h8.02v2.15h-6.21l-.59,3.89c.72-.65,1.85-1.12,2.88-1.12,2.97,0,4.99,1.96,4.99,4.9s-2.08,5.07-5.26,5.07c-2.88,0-5.01-1.6-5.41-4.08Z"/><path class="cls-4" d="m604.91,249.56h2.29v1.35c.59-.86,1.83-1.51,3.3-1.51,3.14,0,4.99,2.27,4.99,5.47s-1.94,5.47-5.11,5.47c-1.28,0-2.52-.55-3.18-1.39v5.05h-2.29v-14.44Zm8.29,5.3c0-2.1-1.22-3.47-3.07-3.47s-3.07,1.37-3.07,3.47,1.22,3.47,3.07,3.47,3.07-1.39,3.07-3.47Z"/><path class="cls-4" d="m620.03,245.27v2.55h-2.53v-2.55h2.53Zm-2.42,4.29h2.29v10.61h-2.29v-10.61Z"/><path class="cls-4" d="m622.62,249.56h2.29v1.35c.59-.86,1.83-1.51,3.3-1.51,3.14,0,4.99,2.27,4.99,5.47s-1.94,5.47-5.11,5.47c-1.28,0-2.52-.55-3.18-1.39v5.05h-2.29v-14.44Zm8.29,5.3c0-2.1-1.22-3.47-3.07-3.47s-3.07,1.37-3.07,3.47,1.22,3.47,3.07,3.47,3.07-1.39,3.07-3.47Z"/><path class="cls-4" d="m634.34,257.22l1.89-.8c.36,1.14,1.18,2.08,2.65,2.08,1.09,0,1.83-.63,1.83-1.39,0-2.29-5.91-.8-5.91-4.82,0-1.66,1.45-2.9,3.75-2.9,2,0,3.68,1.05,4.15,2.61l-1.89.8c-.27-1.05-1.26-1.64-2.23-1.64s-1.64.4-1.64,1.09c0,2.04,5.96.48,5.96,4.84,0,1.83-1.6,3.24-4,3.24-2.59,0-4.06-1.6-4.54-3.11Z"/></g><g><path d="m526.63,236.86h-7.37v-2.15l6.99-9.28h2.82v9.28h1.98v2.15h-1.98v3.3h-2.44v-3.3Zm0-2.15v-6.38l-4.78,6.38h4.78Z"/><path d="m507.72,249.56h2.29v1.35c.59-.86,1.83-1.51,3.3-1.51,3.14,0,4.99,2.27,4.99,5.47s-1.94,5.47-5.11,5.47c-1.28,0-2.52-.55-3.18-1.39v5.05h-2.29v-14.44Zm8.29,5.3c0-2.1-1.22-3.47-3.07-3.47s-3.07,1.37-3.07,3.47,1.22,3.47,3.07,3.47,3.07-1.39,3.07-3.47Z"/><path d="m522.85,245.27v2.55h-2.53v-2.55h2.53Zm-2.42,4.29h2.29v10.61h-2.29v-10.61Z"/><path d="m525.44,249.56h2.29v1.35c.59-.86,1.83-1.51,3.3-1.51,3.14,0,4.99,2.27,4.99,5.47s-1.94,5.47-5.11,5.47c-1.28,0-2.52-.55-3.18-1.39v5.05h-2.29v-14.44Zm8.29,5.3c0-2.1-1.22-3.47-3.07-3.47s-3.07,1.37-3.07,3.47,1.22,3.47,3.07,3.47,3.07-1.39,3.07-3.47Z"/><path d="m537.15,257.22l1.89-.8c.36,1.14,1.18,2.08,2.65,2.08,1.09,0,1.83-.63,1.83-1.39,0-2.29-5.91-.8-5.91-4.82,0-1.66,1.45-2.9,3.75-2.9,2,0,3.68,1.05,4.15,2.61l-1.89.8c-.27-1.05-1.26-1.64-2.23-1.64s-1.64.4-1.64,1.09c0,2.04,5.96.48,5.96,4.84,0,1.83-1.6,3.24-4,3.24-2.59,0-4.06-1.6-4.54-3.11Z"/></g><g><path d="m41.15,77.49v-23.33c10.43-2.48,21.85-8.94,30.62-16.38h19.69v93.34h26.31v22.51H35.69v-22.51h31.61v-65.54c-7.78,5.79-16.22,9.93-26.15,11.92Z"/><path d="m135.48,140.88c0-8.11,6.29-14.23,14.4-14.23s14.4,6.12,14.4,14.23-6.29,14.07-14.4,14.07-14.4-6.12-14.4-14.07Z"/><path class="cls-4" d="m188.11,77.49v-23.33c10.43-2.48,21.85-8.94,30.62-16.38h19.69v93.34h26.31v22.51h-82.09v-22.51h31.61v-65.54c-7.78,5.79-16.22,9.93-26.15,11.92Z"/><path d="m278.31,132.77l41.04-33.26c11.92-9.6,17.38-17.21,17.38-25.49,0-9.1-6.29-15.23-16.22-15.23-11.42,0-18.04,9.43-16.88,23.67l-25.32-1.65c-2.81-24.82,17.38-44.35,42.2-44.35s43.19,15.39,43.19,37.57c0,14.56-9.27,27.8-29.13,42.7l-18.87,14.4h47.83v22.51h-85.07l-.17-20.85Z"/><path class="cls-4" d="m376.28,120.52l23.83-3.97c1.82,9.6,9.93,15.89,20.85,15.89s18.87-6.79,18.87-16.88-7.28-16.88-18.37-16.88c-3.81,0-9.43,1.32-13.41,3.97l-10.09-17.21,29.62-25.32h-47.99v-22.34h79.11v20.85l-28.3,23.67c21.35-.33,35.91,12.74,35.91,34.09,0,23.17-18.37,38.56-45.51,38.56-24.49,0-42.37-13.74-44.52-34.42Z"/><path d="m529.2,131.44h-53.79v-22.34l50.81-71.33h28.8v71.33h13.9v22.34h-13.9v22.18h-25.82v-22.18Zm0-22.34v-39.72l-27.14,39.72h27.14Z"/><path class="cls-4" d="m577.69,122.67l23.67-4.3c2.15,8.61,8.94,14.07,18.7,14.07,10.76,0,17.71-7.12,17.71-17.87s-7.28-17.71-18.87-17.71c-8.27,0-14.56,3.31-19.69,10.43l-19.03-3.97,9.93-65.54h65.04v22.34h-46.01l-3.97,24.16c5.13-4.63,13.07-7.61,20.85-7.61,22.34,0,38.06,15.39,38.06,37.9,0,24.33-17.05,40.38-43.03,40.38-23,0-40.05-12.74-43.36-32.27Z"/></g><circle cx="80.1" cy="165.93" r="4.3"/><circle class="cls-4" cx="226.26" cy="165.93" r="4.3"/><circle cx="320.52" cy="165.93" r="4.3"/><circle class="cls-4" cx="419.87" cy="165.93" r="4.3"/><circle cx="525.39" cy="165.93" r="4.3"/><circle class="cls-4" cx="622.28" cy="165.93" r="4.3"/><g><rect class="cls-2" x="608.08" y="285.45" width="1.4" height="11.03"/><path class="cls-2" d="m611.5,290.96c0-3.76,2.54-5.64,5.24-5.64,2.41,0,4.19,1.35,4.63,3.49l-1.4.3c-.3-1.56-1.51-2.49-3.23-2.49-2.2,0-3.79,1.56-3.79,4.37s1.59,4.36,3.77,4.36c2.03,0,3.32-1.34,3.36-3.27h-3.78v-1.25h5.11v5.69h-1.28v-1.72c-.49,1.12-1.89,1.83-3.41,1.83-2.68,0-5.2-1.87-5.2-5.65"/><rect class="cls-2" x="624.23" y="294.97" width="1.51" height="1.64"/><path class="cls-2" d="m626.9,290.96c0-3.8,2.55-5.64,5.26-5.64,2.36,0,4.12,1.35,4.57,3.49l-1.4.3c-.34-1.59-1.5-2.52-3.19-2.52-2.2,0-3.79,1.54-3.79,4.37s1.59,4.36,3.79,4.36c1.68,0,2.78-.88,3.17-2.4l1.4.3c-.54,2.08-2.23,3.41-4.56,3.41-2.72,0-5.25-1.85-5.25-5.66"/><path class="cls-2" d="m638.76,290.96c0-3.28,2.24-5.64,5.34-5.64s5.33,2.36,5.33,5.64-2.24,5.65-5.33,5.65-5.34-2.36-5.34-5.65m9.23,0c0-2.52-1.63-4.37-3.9-4.37s-3.9,1.85-3.9,4.37,1.63,4.36,3.89,4.36,3.9-1.83,3.9-4.36"/><polygon class="cls-2" points="651.45 285.44 653.16 285.44 656.81 294.4 660.46 285.44 662.17 285.44 662.17 296.48 660.77 296.48 660.77 288.17 657.4 296.49 656.23 296.49 652.84 288.17 652.84 296.49 651.46 296.49 651.46 285.44 651.45 285.44"/><rect class="cls-2" x="651.46" y="285.44" width=".17" height=".18"/></g></svg>